<?xml version="1.0" encoding="UTF-8" standalone="no" ?>
<!DOCTYPE svg PUBLIC "-//W3C//DTD SVG 1.1//EN" "http://www.w3.org/Graphics/SVG/1.1/DTD/svg11.dtd">
<svg xmlns="http://www.w3.org/2000/svg" xmlns:xlink="http://www.w3.org/1999/xlink" version="1.1" width="55.909832328583505" height="83.03290985185656" viewBox="260.87859069074767 93.90440550314668 55.909832328583505 83.03290985185656" xml:space="preserve">
<desc>Created with Fabric.js 4.6.0</desc>
<defs>
</defs>
<g transform="matrix(0 -0.14 -0.14 0 288.83 135.42)" id="vJsX5W-fhQVLyvT0CHnw3"  >
<path style="stroke: none; stroke-width: 1; stroke-dasharray: none; stroke-linecap: butt; stroke-dashoffset: 0; stroke-linejoin: miter; stroke-miterlimit: 4; fill: rgb(14,14,14); fill-rule: nonzero; opacity: 1;" vector-effect="non-scaling-stroke"  transform=" translate(-300, -300)" d="M 599.753 295.331 C 601.1120000000001 308.743 596.868 322.607 586.835 332.90000000000003 C 586.7130000000001 333.035 586.6030000000001 333.182 586.4680000000001 333.30400000000003 L 432.756 487.017 C 423.563 496.212 411.51199999999994 500.80899999999997 399.45599999999996 500.80899999999997 C 387.39799999999997 500.80899999999997 375.34899999999993 496.212 366.14799999999997 487.017 C 347.75399999999996 468.618 347.75399999999996 438.791 366.15399999999994 420.405 L 439.4549999999999 347.097 L 204.101 347.097 C 203.126 347.097 202.158 347.073 201.184 347.01099999999997 C 201.055 347.03499999999997 151.98399999999998 345.07399999999996 121.447 374.2 C 103.36500000000001 391.448 94.196 418.21 94.196 453.71 C 94.196 479.724 73.11099999999999 500.80899999999997 47.098 500.80899999999997 C 21.085 500.809 0 479.724 0 453.71 C 0 390.909 19.295 340.931 57.346 305.162 C 114.178 251.74499999999998 190.45000000000002 252.19899999999998 205.284 252.90299999999996 L 439.462 252.90299999999996 L 366.154 179.59599999999995 C 347.755 161.20199999999994 347.755 131.37599999999995 366.154 112.98199999999994 C 384.543 94.59399999999994 414.368 94.59399999999994 432.756 112.98199999999994 L 586.468 266.693 C 586.603 266.82099999999997 586.713 266.969 586.8349999999999 267.097 C 594.377 275.036 598.711 285.05 599.753 295.331 z" stroke-linecap="round" />
</g>
</svg>